<svg viewBox="0 0 72 72" xmlns="http://www.w3.org/2000/svg">
  <rect width="72" height="72" fill="#FFF8E1"/>
  <rect x="32" y="46" width="8" height="20" rx="2" fill="#795548"/>
  <path d="M36 46 Q22 38 14 30" stroke="#795548" stroke-width="4" fill="none" stroke-linecap="round"/>
  <path d="M36 46 Q50 38 58 30" stroke="#795548" stroke-width="4" fill="none" stroke-linecap="round"/>
  <path d="M36 40 Q28 32 24 24" stroke="#795548" stroke-width="3" fill="none" stroke-linecap="round"/>
  <path d="M36 40 Q44 32 48 24" stroke="#795548" stroke-width="3" fill="none" stroke-linecap="round"/>
  <circle cx="36" cy="24" r="18" fill="#E64A19"/>
  <circle cx="20" cy="30" r="12" fill="#FF7043"/>
  <circle cx="52" cy="30" r="12" fill="#F57F17"/>
  <circle cx="36" cy="14" r="10" fill="#BF360C"/>
  <!-- 散る葉 -->
  <ellipse cx="58" cy="44" rx="5" ry="3" fill="#FF7043" transform="rotate(-45 58 44)"/>
  <ellipse cx="10" cy="50" rx="4" ry="2.5" fill="#F57F17" transform="rotate(30 10 50)"/>
  <ellipse cx="50" cy="56" rx="4" ry="2.5" fill="#E64A19" transform="rotate(-20 50 56)"/>
  <!-- 地面に落ちた葉 -->
  <ellipse cx="20" cy="65" rx="5" ry="2.5" fill="#FF7043" transform="rotate(10 20 65)"/>
  <ellipse cx="48" cy="66" rx="4" ry="2" fill="#F57F17" transform="rotate(-15 48 66)"/>
  <!-- 地面 -->
  <rect x="4" y="64" width="64" height="6" rx="2" fill="#8D6E63"/>
</svg>