<svg viewBox="0 0 144 76" xmlns="http://www.w3.org/2000/svg">
<rect width="144" height="76" rx="10" fill="#FFF8E1"/>
<path d="M 21,7 L 24.70304708944258,15.903192935437831 L 34.31479122813215,16.673762078750737 L 26.991656052659465,22.94680706456217 L 29.228993532094623,32.326237921249266 L 21,27.3 L 12.771006467905378,32.326237921249266 L 15.008343947340533,22.94680706456217 L 7.685208771867849,16.673762078750737 L 17.29695291055742,15.903192935437833 Z" fill="#FFD700" stroke="#E8A500" stroke-width="1.5"/>
<path d="M 55,7 L 58.70304708944258,15.903192935437831 L 68.31479122813215,16.673762078750737 L 60.991656052659465,22.94680706456217 L 63.22899353209462,32.326237921249266 L 55,27.3 L 46.77100646790538,32.326237921249266 L 49.008343947340535,22.94680706456217 L 41.68520877186785,16.673762078750737 L 51.296952910557415,15.903192935437833 Z" fill="#FFD700" stroke="#E8A500" stroke-width="1.5"/>
<path d="M 89,7 L 92.70304708944258,15.903192935437831 L 102.31479122813215,16.673762078750737 L 94.99165605265947,22.94680706456217 L 97.22899353209462,32.326237921249266 L 89,27.3 L 80.77100646790538,32.326237921249266 L 83.00834394734053,22.94680706456217 L 75.68520877186785,16.673762078750737 L 85.29695291055742,15.903192935437833 Z" fill="#FFD700" stroke="#E8A500" stroke-width="1.5"/>
<path d="M 123,7 L 126.70304708944258,15.903192935437831 L 136.31479122813215,16.673762078750737 L 128.99165605265947,22.94680706456217 L 131.22899353209462,32.326237921249266 L 123,27.3 L 114.77100646790538,32.326237921249266 L 117.00834394734053,22.94680706456217 L 109.68520877186785,16.673762078750737 L 119.29695291055742,15.903192935437833 Z" fill="#FFD700" stroke="#E8A500" stroke-width="1.5"/>
<path d="M 38,41 L 41.70304708944258,49.90319293543783 L 51.31479122813215,50.673762078750734 L 43.991656052659465,56.946807064562165 L 46.22899353209462,66.32623792124926 L 38,61.3 L 29.77100646790538,66.32623792124926 L 32.008343947340535,56.94680706456217 L 24.68520877186785,50.67376207875074 L 34.296952910557415,49.90319293543783 Z" fill="#FFD700" stroke="#E8A500" stroke-width="1.5"/>
<path d="M 72,41 L 75.70304708944258,49.90319293543783 L 85.31479122813215,50.673762078750734 L 77.99165605265947,56.946807064562165 L 80.22899353209462,66.32623792124926 L 72,61.3 L 63.77100646790538,66.32623792124926 L 66.00834394734053,56.94680706456217 L 58.68520877186785,50.67376207875074 L 68.29695291055742,49.90319293543783 Z" fill="#FFD700" stroke="#E8A500" stroke-width="1.5"/>
<path d="M 106,41 L 109.70304708944258,49.90319293543783 L 119.31479122813215,50.673762078750734 L 111.99165605265947,56.946807064562165 L 114.22899353209462,66.32623792124926 L 106,61.3 L 97.77100646790538,66.32623792124926 L 100.00834394734053,56.94680706456217 L 92.68520877186785,50.67376207875074 L 102.29695291055742,49.90319293543783 Z" fill="#FFD700" stroke="#E8A500" stroke-width="1.5"/>
</svg>