<svg viewBox="0 0 110 44" xmlns="http://www.w3.org/2000/svg">
<rect width="110" height="44" rx="10" fill="#FFF8E1"/>
<path d="M 21,8 L 24.70304708944258,16.90319293543783 L 34.31479122813215,17.673762078750737 L 26.991656052659465,23.94680706456217 L 29.228993532094623,33.326237921249266 L 21,28.3 L 12.771006467905378,33.326237921249266 L 15.008343947340533,23.94680706456217 L 7.685208771867849,17.673762078750737 L 17.29695291055742,16.903192935437833 Z" fill="#FFD700" stroke="#E8A500" stroke-width="1.5"/>
<path d="M 55,8 L 58.70304708944258,16.90319293543783 L 68.31479122813215,17.673762078750737 L 60.991656052659465,23.94680706456217 L 63.22899353209462,33.326237921249266 L 55,28.3 L 46.77100646790538,33.326237921249266 L 49.008343947340535,23.94680706456217 L 41.68520877186785,17.673762078750737 L 51.296952910557415,16.903192935437833 Z" fill="#FFD700" stroke="#E8A500" stroke-width="1.5"/>
<path d="M 89,8 L 92.70304708944258,16.90319293543783 L 102.31479122813215,17.673762078750737 L 94.99165605265947,23.94680706456217 L 97.22899353209462,33.326237921249266 L 89,28.3 L 80.77100646790538,33.326237921249266 L 83.00834394734053,23.94680706456217 L 75.68520877186785,17.673762078750737 L 85.29695291055742,16.903192935437833 Z" fill="#FFD700" stroke="#E8A500" stroke-width="1.5"/>
</svg>