<svg viewBox="0 0 72 72" xmlns="http://www.w3.org/2000/svg">
  <rect width="72" height="72" fill="#E8F4FD"/>
  <rect x="32" y="46" width="8" height="20" rx="2" fill="#795548"/>
  <path d="M36 46 Q22 38 14 30" stroke="#795548" stroke-width="4" fill="none" stroke-linecap="round"/>
  <path d="M36 46 Q50 38 58 30" stroke="#795548" stroke-width="4" fill="none" stroke-linecap="round"/>
  <path d="M36 40 Q28 32 24 24" stroke="#795548" stroke-width="3" fill="none" stroke-linecap="round"/>
  <path d="M36 40 Q44 32 48 24" stroke="#795548" stroke-width="3" fill="none" stroke-linecap="round"/>
  <circle cx="36" cy="24" r="18" fill="#F48FB1" opacity="0.9"/>
  <circle cx="20" cy="28" r="12" fill="#F48FB1" opacity="0.85"/>
  <circle cx="52" cy="28" r="12" fill="#F48FB1" opacity="0.85"/>
  <circle cx="36" cy="14" r="10" fill="#F06292" opacity="0.8"/>
  <!-- 花びら点描 -->
  <circle cx="30" cy="22" r="2.5" fill="#fff" opacity="0.6"/>
  <circle cx="42" cy="18" r="2" fill="#fff" opacity="0.6"/>
  <circle cx="22" cy="26" r="2" fill="#fff" opacity="0.6"/>
  <!-- 舞い散る花びら -->
  <ellipse cx="55" cy="48" rx="3" ry="1.5" fill="#F48FB1" transform="rotate(-30 55 48)"/>
  <ellipse cx="12" cy="44" rx="3" ry="1.5" fill="#F48FB1" transform="rotate(20 12 44)"/>
  <!-- 地面 -->
  <rect x="4" y="64" width="64" height="6" rx="2" fill="#8BC34A"/>
</svg>