<svg viewBox="0 0 72 72" xmlns="http://www.w3.org/2000/svg">
  <rect width="72" height="72" fill="#E3F2FD"/>
  <rect x="32" y="46" width="8" height="20" rx="2" fill="#795548"/>
  <path d="M36 46 Q22 38 14 30" stroke="#795548" stroke-width="4" fill="none" stroke-linecap="round"/>
  <path d="M36 46 Q50 38 58 30" stroke="#795548" stroke-width="4" fill="none" stroke-linecap="round"/>
  <path d="M36 40 Q28 32 24 24" stroke="#795548" stroke-width="3" fill="none" stroke-linecap="round"/>
  <path d="M36 40 Q44 32 48 24" stroke="#795548" stroke-width="3" fill="none" stroke-linecap="round"/>
  <!-- 枝の先の雪 -->
  <ellipse cx="14" cy="29" rx="7" ry="3" fill="white" stroke="#90CAF9" stroke-width="0.5"/>
  <ellipse cx="58" cy="29" rx="7" ry="3" fill="white" stroke="#90CAF9" stroke-width="0.5"/>
  <ellipse cx="24" cy="23" rx="5" ry="2.5" fill="white" stroke="#90CAF9" stroke-width="0.5"/>
  <ellipse cx="48" cy="23" rx="5" ry="2.5" fill="white" stroke="#90CAF9" stroke-width="0.5"/>
  <!-- 幹の上の雪 -->
  <ellipse cx="36" cy="45" rx="6" ry="2.5" fill="white"/>
  <!-- 雪の結晶 -->
  <text x="52" y="18" font-size="14" fill="#90CAF9">❄</text>
  <text x="8" y="22" font-size="10" fill="#90CAF9">❄</text>
  <text x="38" y="10" font-size="9" fill="#BBDEFB">❄</text>
  <!-- 地面に積雪 -->
  <rect x="4" y="62" width="64" height="8" rx="4" fill="white" stroke="#90CAF9" stroke-width="0.5"/>
</svg>